<?xml version="1.0" encoding="utf-8"?>
<!-- Generator: Adobe Illustrator 22.1.0, SVG Export Plug-In . SVG Version: 6.00 Build 0)  -->
<svg version="1.1" id="Layer_1" xmlns="http://www.w3.org/2000/svg" xmlns:xlink="http://www.w3.org/1999/xlink" x="0px" y="0px"
	 viewBox="0 0 100 100" style="enable-background:new 0 0 100 100;" xml:space="preserve">
<style type="text/css">
	.st0{fill:#FFFFFF;}
	.st1{font-family:'Rubik-Bold';}
	.st2{font-size:17.8762px;}
	.st3{font-size:9.9312px;}
</style>
<g>
	<g>
		<path class="st0" d="M18.6,38.1c3-0.4,5.2-3.2,4.8-6.4c-0.4-3.1-3.1-5.4-6.1-5c-3,0.4-5.2,3.2-4.8,6.4
			C12.9,36.2,15.6,38.4,18.6,38.1z"/>
		<path class="st0" d="M37.5,21.1c-0.6-0.5-1.4-1.2-2.4-1.5c-0.5-0.2-1-0.2-1.5-0.2c-3.2,0.2-6.2,2.7-6.8,7.4
			c-1.3,10.8-3.4,13.6-5.2,14.4c-3.2,1.5-14.2-5.6-17.2-7.4c-1.5-0.9-3-0.6-3.7,0.3c-0.9,1.3-0.5,2.8,1,3.9
			c3.1,2.3,19,14.2,23.8,12.1c6.4-2.7,6.9-17.9,7.4-22.5c0.1-0.9,0.2-1.6,0.4-2.2c0,0,0,0,0,0c0.1-0.4,0.2-0.8,0.4-1.1
			c1.5-3.4,4.3-2.4,4.6-2.3l0,0C38,21.7,37.7,21.3,37.5,21.1z"/>
		<path class="st0" d="M50.1,30.3c3.1,0.1,5.6-2.4,5.7-5.5c0.1-3.2-2.3-5.8-5.3-5.9c-3.1-0.1-5.6,2.4-5.7,5.5
			C44.6,27.5,47,30.2,50.1,30.3z"/>
		<path class="st0" d="M99.4,34.3c-0.6-1-2.1-1.4-3.6-0.6c-3,1.6-13.5,8.3-17.7,6.1c-3.3-1.8-4.6-10.2-5.2-15.4
			c-0.4-0.4-2.9-2.5-5.8,1c0,0-0.1,0.1-0.1,0.1c0,6.6,1.7,19.5,7.2,22.7c6.1,3.3,20.4-7.3,23.9-9.9C99.5,37.3,100.1,35.6,99.4,34.3z
			"/>
		<path class="st0" d="M72.3,22.8c-0.5-1-1.3-2.3-2.7-2.8c-0.7-0.3-1.4-0.4-2.2-0.5c-2.5-0.1-5.1,1.2-6.9,4.3
			C55,33.1,52,34.7,50,34.6c-3.1-0.1-8.9-8.5-11.7-12.6c0,0,0,0,0,0c-0.3-0.1-3.1-1-4.6,2.3c-0.1,0.3-0.3,0.7-0.4,1.1
			C36.6,31,45.4,44.3,50,44.5c6.9,0.2,13.4-13.3,15.7-17.2c0.4-0.7,0.8-1.3,1.2-1.8c0,0,0.1-0.1,0.1-0.1c2.9-3.5,5.4-1.4,5.8-1
			c0,0,0,0,0,0C72.7,23.8,72.5,23.3,72.3,22.8z"/>
		<path class="st0" d="M80.6,37.5c2.9,0.8,6-1,6.8-4c0.8-3.1-1-6.2-3.9-7c-2.9-0.8-6,1-6.8,4C75.9,33.5,77.7,36.6,80.6,37.5z"/>
	</g>
	<text transform="matrix(0.9646 0 0 1 2.825 65.7194)" class="st0 st1 st2">Web Reach</text>
	<text transform="matrix(0.9646 0 0 1 2.3103 78.278)" class="st0 st1 st3">Ao alcance de todos</text>
</g>
</svg>
